<svg class="Header-javascriptToggleIcon Header-javascriptToggleIcon--disabled" height="24" viewBox="0 0 24 24" width="24" xmlns="http://www.w3.org/2000/svg">
  <path d="M0 0h24v24H0V0z" fill="none"/>
  <path d="M6.1 17.6c-1 0-1.8-.3-2.4-.9-.6-.6-.9-1.5-.9-2.5v-.5h2v.2c0 1.7.8 1.9 1.3 1.9s.9-.1 1.1-.4c.2-.2.4-.6.4-1.8V5.4h2v8.1c0 1.5-.3 2.5-.9 3.2-.6.6-1.5.9-2.6.9zM16.3 17.6c-1.7 0-3-.4-3.8-1.2-.9-.8-1.3-1.8-1.3-3v-.2h1.9v.2c.1.8.4 1.4 1 1.7.6.4 1.3.6 2.2.6.8 0 1.5-.2 1.9-.5.5-.3.7-.7.7-1.3 0-.6-.2-.9-.7-1.2-.5-.3-1.4-.6-2.7-.8-1.4-.3-2.3-.7-3-1.2-.6-.5-.9-1.3-.9-2.2 0-1 .4-1.8 1.2-2.5.8-.6 1.8-.9 3.1-.9s2.5.3 3.3 1c.9.6 1.3 1.6 1.4 2.7V9h-1.9v-.2C18.5 7.6 17.6 7 16 7c-.8 0-1.4.1-1.9.4-.4.3-.6.6-.6 1.1 0 .4.2.7.5.9.4.2 1 .5 2 .7 1 .2 1.9.5 2.5.7.6.2 1.2.6 1.6 1.1.5.5.7 1.2.7 2 0 1.1-.4 2-1.3 2.7-.8.7-1.9 1-3.2 1z"/>
  <g>
    <path d="M13.3 13v.4c.1.7.3 1.2.9 1.6.6.4 1.3.5 2.1.5h.7l-4.4-4.4c-.1-.1-.2-.1-.2-.2-.2-.2-.4-.4-.5-.6l-2-2v2.8l1.8 1.8h1.6zM7.3 5.9l-1-1-1.4 1.4 2.4 2.5zM16.4 17.9l1.2 1.2 1.4-1.4-.3-.3c-.6.3-1.4.4-2.3.5z"/>
  </g>
</svg>